{
	"patcher" : 	{
		"fileversion" : 1,
		"appversion" : 		{
			"major" : 8,
			"minor" : 0,
			"revision" : 2,
			"architecture" : "x64",
			"modernui" : 1
		}
,
		"classnamespace" : "box",
		"rect" : [ 1946.0, 85.0, 1212.0, 883.0 ],
		"bglocked" : 1,
		"openinpresentation" : 1,
		"default_fontsize" : 12.0,
		"default_fontface" : 0,
		"default_fontname" : "Arial",
		"gridonopen" : 1,
		"gridsize" : [ 15.0, 15.0 ],
		"gridsnaponopen" : 1,
		"objectsnaponopen" : 1,
		"statusbarvisible" : 2,
		"toolbarvisible" : 1,
		"lefttoolbarpinned" : 0,
		"toptoolbarpinned" : 0,
		"righttoolbarpinned" : 0,
		"bottomtoolbarpinned" : 0,
		"toolbars_unpinned_last_save" : 0,
		"tallnewobj" : 0,
		"boxanimatetime" : 200,
		"enablehscroll" : 1,
		"enablevscroll" : 1,
		"devicewidth" : 0.0,
		"description" : "",
		"digest" : "",
		"tags" : "",
		"style" : "",
		"subpatcher_template" : "",
		"boxes" : [ 			{
				"box" : 				{
					"color" : [ 0.811764705882353, 0.494117647058824, 0.247058823529412, 1.0 ],
					"id" : "obj-28",
					"maxclass" : "newobj",
					"numinlets" : 1,
					"numoutlets" : 0,
					"patching_rect" : [ 520.5, 482.0, 73.0, 22.0 ],
					"text" : "AudioPlayer",
					"varname" : "Interface[1]"
				}

			}
, 			{
				"box" : 				{
					"id" : "obj-20",
					"maxclass" : "newobj",
					"numinlets" : 2,
					"numoutlets" : 2,
					"outlettype" : [ "bang", "" ],
					"patching_rect" : [ 125.0, 171.0, 34.0, 22.0 ],
					"text" : "sel 0"
				}

			}
, 			{
				"box" : 				{
					"color" : [ 0.630609, 0.277737, 0.179169, 1.0 ],
					"id" : "obj-14",
					"maxclass" : "newobj",
					"numinlets" : 1,
					"numoutlets" : 0,
					"patching_rect" : [ 408.5, 463.0, 63.0, 22.0 ],
					"text" : "s trainEnd"
				}

			}
, 			{
				"box" : 				{
					"id" : "obj-11",
					"maxclass" : "newobj",
					"numinlets" : 2,
					"numoutlets" : 2,
					"outlettype" : [ "bang", "" ],
					"patching_rect" : [ 408.5, 435.0, 34.0, 22.0 ],
					"text" : "sel 1"
				}

			}
, 			{
				"box" : 				{
					"color" : [ 0.847058823529412, 0.76078431372549, 0.337254901960784, 1.0 ],
					"id" : "obj-10",
					"maxclass" : "newobj",
					"numinlets" : 1,
					"numoutlets" : 1,
					"outlettype" : [ "" ],
					"patching_rect" : [ 408.5, 406.5, 59.0, 22.0 ],
					"text" : "v session"
				}

			}
, 			{
				"box" : 				{
					"color" : [ 0.109078, 0.481945, 0.537541, 1.0 ],
					"id" : "obj-7",
					"maxclass" : "newobj",
					"numinlets" : 0,
					"numoutlets" : 1,
					"outlettype" : [ "" ],
					"patching_rect" : [ 408.5, 378.0, 57.0, 22.0 ],
					"text" : "r testEnd"
				}

			}
, 			{
				"box" : 				{
					"id" : "obj-15",
					"maxclass" : "message",
					"numinlets" : 2,
					"numoutlets" : 1,
					"outlettype" : [ "" ],
					"patching_rect" : [ 263.5, 188.0, 129.0, 22.0 ],
					"text" : "symbol \"Prénom Nom\""
				}

			}
, 			{
				"box" : 				{
					"id" : "obj-12",
					"maxclass" : "newobj",
					"numinlets" : 2,
					"numoutlets" : 2,
					"outlettype" : [ "bang", "" ],
					"patching_rect" : [ 263.5, 159.0, 34.0, 22.0 ],
					"text" : "sel 0"
				}

			}
, 			{
				"box" : 				{
					"color" : [ 0.630609, 0.277737, 0.179169, 1.0 ],
					"id" : "obj-66",
					"maxclass" : "newobj",
					"numinlets" : 1,
					"numoutlets" : 0,
					"patching_rect" : [ 327.5, 276.0, 73.0, 22.0 ],
					"text" : "s userName"
				}

			}
, 			{
				"box" : 				{
					"id" : "obj-63",
					"maxclass" : "newobj",
					"numinlets" : 1,
					"numoutlets" : 2,
					"outlettype" : [ "bang", "" ],
					"patching_rect" : [ 263.5, 245.0, 31.0, 22.0 ],
					"text" : "t b s"
				}

			}
, 			{
				"box" : 				{
					"annotation" : "Entrez votre nom :",
					"hint" : "Cool",
					"id" : "obj-54",
					"maxclass" : "newobj",
					"numinlets" : 2,
					"numoutlets" : 2,
					"outlettype" : [ "", "bang" ],
					"patching_rect" : [ 263.5, 217.0, 152.0, 22.0 ],
					"text" : "dialog Entrez votre nom :"
				}

			}
, 			{
				"box" : 				{
					"color" : [ 0.811764705882353, 0.494117647058824, 0.247058823529412, 1.0 ],
					"id" : "obj-36",
					"maxclass" : "newobj",
					"numinlets" : 1,
					"numoutlets" : 0,
					"patching_rect" : [ 115.0, 482.0, 108.0, 22.0 ],
					"text" : "TraitementFichiers",
					"varname" : "TraitementFichiers"
				}

			}
, 			{
				"box" : 				{
					"id" : "obj-27",
					"maxclass" : "message",
					"numinlets" : 2,
					"numoutlets" : 1,
					"outlettype" : [ "" ],
					"patching_rect" : [ 263.5, 76.0, 29.5, 22.0 ],
					"text" : "1"
				}

			}
, 			{
				"box" : 				{
					"color" : [ 0.109078, 0.481945, 0.537541, 1.0 ],
					"id" : "obj-26",
					"maxclass" : "newobj",
					"numinlets" : 0,
					"numoutlets" : 1,
					"outlettype" : [ "" ],
					"patching_rect" : [ 263.5, 48.5, 61.0, 22.0 ],
					"text" : "r trainEnd"
				}

			}
, 			{
				"box" : 				{
					"color" : [ 0.109078, 0.481945, 0.537541, 1.0 ],
					"id" : "obj-24",
					"maxclass" : "newobj",
					"numinlets" : 0,
					"numoutlets" : 1,
					"outlettype" : [ "" ],
					"patching_rect" : [ 331.5, 378.0, 57.0, 22.0 ],
					"text" : "r runTest"
				}

			}
, 			{
				"box" : 				{
					"color" : [ 0.109078, 0.481945, 0.537541, 1.0 ],
					"id" : "obj-25",
					"maxclass" : "newobj",
					"numinlets" : 0,
					"numoutlets" : 1,
					"outlettype" : [ "" ],
					"patching_rect" : [ 239.5, 378.0, 86.0, 22.0 ],
					"text" : "r entrainement"
				}

			}
, 			{
				"box" : 				{
					"id" : "obj-23",
					"maxclass" : "message",
					"numinlets" : 2,
					"numoutlets" : 1,
					"outlettype" : [ "" ],
					"patching_rect" : [ 239.5, 413.0, 35.0, 22.0 ],
					"text" : "open"
				}

			}
, 			{
				"box" : 				{
					"id" : "obj-17",
					"maxclass" : "newobj",
					"numinlets" : 1,
					"numoutlets" : 1,
					"outlettype" : [ "" ],
					"patching_rect" : [ 239.5, 446.0, 51.0, 22.0 ],
					"text" : "pcontrol"
				}

			}
, 			{
				"box" : 				{
					"color" : [ 0.811764705882353, 0.494117647058824, 0.247058823529412, 1.0 ],
					"id" : "obj-16",
					"maxclass" : "newobj",
					"numinlets" : 1,
					"numoutlets" : 0,
					"patching_rect" : [ 239.5, 482.0, 55.0, 22.0 ],
					"text" : "Interface",
					"varname" : "Interface"
				}

			}
, 			{
				"box" : 				{
					"id" : "obj-9",
					"maxclass" : "message",
					"numinlets" : 2,
					"numoutlets" : 1,
					"outlettype" : [ "" ],
					"patching_rect" : [ 263.5, 105.0, 57.0, 22.0 ],
					"text" : "active $1"
				}

			}
, 			{
				"box" : 				{
					"id" : "obj-8",
					"maxclass" : "message",
					"numinlets" : 2,
					"numoutlets" : 1,
					"outlettype" : [ "" ],
					"patching_rect" : [ 125.0, 105.0, 57.0, 22.0 ],
					"text" : "active $1"
				}

			}
, 			{
				"box" : 				{
					"color" : [ 0.847058823529412, 0.76078431372549, 0.337254901960784, 1.0 ],
					"id" : "obj-6",
					"maxclass" : "newobj",
					"numinlets" : 1,
					"numoutlets" : 1,
					"outlettype" : [ "" ],
					"patching_rect" : [ 125.0, 132.5, 123.0, 22.0 ],
					"text" : "pvar btnEntrainement"
				}

			}
, 			{
				"box" : 				{
					"color" : [ 0.847058823529412, 0.76078431372549, 0.337254901960784, 1.0 ],
					"id" : "obj-196",
					"maxclass" : "newobj",
					"numinlets" : 1,
					"numoutlets" : 1,
					"outlettype" : [ "" ],
					"patching_rect" : [ 263.5, 132.5, 75.0, 22.0 ],
					"text" : "pvar btnTest"
				}

			}
, 			{
				"box" : 				{
					"active" : 0,
					"id" : "obj-5",
					"inactiveimage" : 1,
					"maxclass" : "pictctrl",
					"name" : "btnTest.png",
					"numinlets" : 1,
					"numoutlets" : 1,
					"outlettype" : [ "int" ],
					"parameter_enable" : 0,
					"patching_rect" : [ 550.0, 224.0, 208.5, 73.0 ],
					"presentation" : 1,
					"presentation_rect" : [ 113.75, 214.0, 208.5, 73.0 ],
					"snap" : 1,
					"varname" : "btnTest"
				}

			}
, 			{
				"box" : 				{
					"id" : "obj-4",
					"inactiveimage" : 1,
					"maxclass" : "pictctrl",
					"name" : "btnEntrainement.png",
					"numinlets" : 1,
					"numoutlets" : 1,
					"outlettype" : [ "int" ],
					"parameter_enable" : 0,
					"patching_rect" : [ 550.0, 159.0, 208.5, 73.0 ],
					"presentation" : 1,
					"presentation_rect" : [ 113.75, 139.0, 208.5, 73.0 ],
					"snap" : 1,
					"varname" : "btnEntrainement"
				}

			}
, 			{
				"box" : 				{
					"color" : [ 0.109078, 0.481945, 0.537541, 1.0 ],
					"id" : "obj-3",
					"maxclass" : "newobj",
					"numinlets" : 0,
					"numoutlets" : 1,
					"outlettype" : [ "" ],
					"patching_rect" : [ 40.0, 400.0, 61.0, 22.0 ],
					"text" : "r trainEnd"
				}

			}
, 			{
				"box" : 				{
					"id" : "obj-64",
					"maxclass" : "message",
					"numinlets" : 2,
					"numoutlets" : 1,
					"outlettype" : [ "" ],
					"patching_rect" : [ 22.0, 428.0, 33.0, 22.0 ],
					"text" : "front"
				}

			}
, 			{
				"box" : 				{
					"color" : [ 0.109078, 0.481945, 0.537541, 1.0 ],
					"id" : "obj-62",
					"maxclass" : "newobj",
					"numinlets" : 0,
					"numoutlets" : 1,
					"outlettype" : [ "" ],
					"patching_rect" : [ 22.0, 372.0, 31.0, 22.0 ],
					"text" : "r init"
				}

			}
, 			{
				"box" : 				{
					"id" : "obj-57",
					"maxclass" : "newobj",
					"numinlets" : 1,
					"numoutlets" : 2,
					"outlettype" : [ "", "" ],
					"patching_rect" : [ 22.0, 482.0, 67.0, 22.0 ],
					"save" : [ "#N", "thispatcher", ";", "#Q", "end", ";" ],
					"text" : "thispatcher"
				}

			}
, 			{
				"box" : 				{
					"bgcolor" : [ 0.862745098039216, 0.843137254901961, 0.788235294117647, 1.0 ],
					"fontface" : 1,
					"fontname" : "Tahoma",
					"id" : "obj-37",
					"maxclass" : "comment",
					"numinlets" : 1,
					"numoutlets" : 0,
					"patching_rect" : [ 289.4705810546875, 19.0, 166.0, 21.0 ],
					"presentation" : 1,
					"presentation_rect" : [ 150.0, 108.0, 136.0, 21.0 ],
					"text" : "Choisir une session :",
					"textcolor" : [ 0.24705882370472, 0.30588236451149, 0.309803932905197, 1.0 ],
					"textjustification" : 1
				}

			}
, 			{
				"box" : 				{
					"color" : [ 0.630609, 0.277737, 0.179169, 1.0 ],
					"id" : "obj-35",
					"maxclass" : "newobj",
					"numinlets" : 1,
					"numoutlets" : 0,
					"patching_rect" : [ 263.5, 276.0, 59.0, 22.0 ],
					"text" : "s runTest"
				}

			}
, 			{
				"box" : 				{
					"color" : [ 0.630609, 0.277737, 0.179169, 1.0 ],
					"id" : "obj-34",
					"maxclass" : "newobj",
					"numinlets" : 1,
					"numoutlets" : 0,
					"patching_rect" : [ 125.0, 210.0, 88.0, 22.0 ],
					"text" : "s entrainement"
				}

			}
, 			{
				"box" : 				{
					"id" : "obj-33",
					"maxclass" : "newobj",
					"numinlets" : 1,
					"numoutlets" : 2,
					"outlettype" : [ "int", "int" ],
					"patching_rect" : [ 125.0, 71.0, 32.0, 22.0 ],
					"text" : "t 1 0"
				}

			}
, 			{
				"box" : 				{
					"color" : [ 0.109078, 0.481945, 0.537541, 1.0 ],
					"id" : "obj-19",
					"maxclass" : "newobj",
					"numinlets" : 0,
					"numoutlets" : 1,
					"outlettype" : [ "" ],
					"patching_rect" : [ 125.0, 43.0, 31.0, 22.0 ],
					"text" : "r init"
				}

			}
, 			{
				"box" : 				{
					"id" : "obj-2",
					"maxclass" : "newobj",
					"numinlets" : 1,
					"numoutlets" : 1,
					"outlettype" : [ "bang" ],
					"patching_rect" : [ 34.0, 43.0, 60.0, 22.0 ],
					"text" : "loadbang"
				}

			}
, 			{
				"box" : 				{
					"color" : [ 0.630609, 0.277737, 0.179169, 1.0 ],
					"id" : "obj-1",
					"maxclass" : "newobj",
					"numinlets" : 1,
					"numoutlets" : 0,
					"patching_rect" : [ 34.0, 76.0, 35.0, 22.0 ],
					"text" : "s init"
				}

			}
, 			{
				"box" : 				{
					"background" : 1,
					"id" : "obj-61",
					"maxclass" : "comment",
					"numinlets" : 0,
					"numoutlets" : 0,
					"patching_rect" : [ 14.0, 345.0, 129.0, 20.0 ],
					"suppressinlet" : 1,
					"text" : "contrôle des patchers"
				}

			}
, 			{
				"box" : 				{
					"background" : 1,
					"id" : "obj-22",
					"maxclass" : "comment",
					"numinlets" : 0,
					"numoutlets" : 0,
					"patching_rect" : [ 119.0, 19.0, 135.0, 20.0 ],
					"suppressinlet" : 1,
					"text" : "choix entrainement/test"
				}

			}
, 			{
				"box" : 				{
					"background" : 1,
					"id" : "obj-21",
					"maxclass" : "comment",
					"numinlets" : 0,
					"numoutlets" : 0,
					"patching_rect" : [ 14.0, 19.0, 74.0, 20.0 ],
					"suppressinlet" : 1,
					"text" : "initialisation"
				}

			}
, 			{
				"box" : 				{
					"angle" : 270.0,
					"background" : 1,
					"bgcolor" : [ 0.384313725490196, 0.556862745098039, 0.564705882352941, 1.0 ],
					"border" : 1,
					"bordercolor" : [ 0.996078431372549, 0.996078431372549, 0.996078431372549, 1.0 ],
					"id" : "obj-59",
					"maxclass" : "panel",
					"mode" : 0,
					"numinlets" : 1,
					"numoutlets" : 0,
					"patching_rect" : [ 14.0, 345.0, 701.0, 168.0 ],
					"proportion" : 0.5,
					"prototypename" : "backgroundPanel"
				}

			}
, 			{
				"box" : 				{
					"angle" : 270.0,
					"background" : 1,
					"bgcolor" : [ 0.384313725490196, 0.556862745098039, 0.564705882352941, 1.0 ],
					"border" : 1,
					"bordercolor" : [ 0.996078431372549, 0.996078431372549, 0.996078431372549, 1.0 ],
					"id" : "obj-18",
					"maxclass" : "panel",
					"mode" : 0,
					"numinlets" : 1,
					"numoutlets" : 0,
					"patching_rect" : [ 119.0, 19.0, 648.4705810546875, 289.0 ],
					"proportion" : 0.5,
					"prototypename" : "backgroundPanel"
				}

			}
, 			{
				"box" : 				{
					"angle" : 270.0,
					"background" : 1,
					"bgcolor" : [ 0.384313725490196, 0.556862745098039, 0.564705882352941, 1.0 ],
					"border" : 1,
					"bordercolor" : [ 0.996078431372549, 0.996078431372549, 0.996078431372549, 1.0 ],
					"id" : "obj-13",
					"maxclass" : "panel",
					"mode" : 0,
					"numinlets" : 1,
					"numoutlets" : 0,
					"patching_rect" : [ 14.0, 19.0, 100.0, 85.0 ],
					"proportion" : 0.5,
					"prototypename" : "backgroundPanel"
				}

			}
 ],
		"lines" : [ 			{
				"patchline" : 				{
					"destination" : [ "obj-11", 0 ],
					"source" : [ "obj-10", 0 ]
				}

			}
, 			{
				"patchline" : 				{
					"destination" : [ "obj-14", 0 ],
					"source" : [ "obj-11", 0 ]
				}

			}
, 			{
				"patchline" : 				{
					"destination" : [ "obj-15", 0 ],
					"source" : [ "obj-12", 0 ]
				}

			}
, 			{
				"patchline" : 				{
					"destination" : [ "obj-54", 0 ],
					"source" : [ "obj-15", 0 ]
				}

			}
, 			{
				"patchline" : 				{
					"destination" : [ "obj-16", 0 ],
					"source" : [ "obj-17", 0 ]
				}

			}
, 			{
				"patchline" : 				{
					"destination" : [ "obj-33", 0 ],
					"source" : [ "obj-19", 0 ]
				}

			}
, 			{
				"patchline" : 				{
					"destination" : [ "obj-12", 0 ],
					"source" : [ "obj-196", 0 ]
				}

			}
, 			{
				"patchline" : 				{
					"destination" : [ "obj-1", 0 ],
					"source" : [ "obj-2", 0 ]
				}

			}
, 			{
				"patchline" : 				{
					"destination" : [ "obj-34", 0 ],
					"source" : [ "obj-20", 0 ]
				}

			}
, 			{
				"patchline" : 				{
					"destination" : [ "obj-17", 0 ],
					"source" : [ "obj-23", 0 ]
				}

			}
, 			{
				"patchline" : 				{
					"destination" : [ "obj-23", 0 ],
					"source" : [ "obj-24", 0 ]
				}

			}
, 			{
				"patchline" : 				{
					"destination" : [ "obj-23", 0 ],
					"source" : [ "obj-25", 0 ]
				}

			}
, 			{
				"patchline" : 				{
					"destination" : [ "obj-27", 0 ],
					"source" : [ "obj-26", 0 ]
				}

			}
, 			{
				"patchline" : 				{
					"destination" : [ "obj-9", 0 ],
					"source" : [ "obj-27", 0 ]
				}

			}
, 			{
				"patchline" : 				{
					"destination" : [ "obj-64", 0 ],
					"source" : [ "obj-3", 0 ]
				}

			}
, 			{
				"patchline" : 				{
					"destination" : [ "obj-8", 0 ],
					"source" : [ "obj-33", 0 ]
				}

			}
, 			{
				"patchline" : 				{
					"destination" : [ "obj-9", 0 ],
					"source" : [ "obj-33", 1 ]
				}

			}
, 			{
				"patchline" : 				{
					"destination" : [ "obj-63", 0 ],
					"source" : [ "obj-54", 0 ]
				}

			}
, 			{
				"patchline" : 				{
					"destination" : [ "obj-20", 0 ],
					"source" : [ "obj-6", 0 ]
				}

			}
, 			{
				"patchline" : 				{
					"destination" : [ "obj-64", 0 ],
					"source" : [ "obj-62", 0 ]
				}

			}
, 			{
				"patchline" : 				{
					"destination" : [ "obj-35", 0 ],
					"source" : [ "obj-63", 0 ]
				}

			}
, 			{
				"patchline" : 				{
					"destination" : [ "obj-66", 0 ],
					"source" : [ "obj-63", 1 ]
				}

			}
, 			{
				"patchline" : 				{
					"destination" : [ "obj-57", 0 ],
					"source" : [ "obj-64", 0 ]
				}

			}
, 			{
				"patchline" : 				{
					"destination" : [ "obj-10", 0 ],
					"source" : [ "obj-7", 0 ]
				}

			}
, 			{
				"patchline" : 				{
					"destination" : [ "obj-6", 0 ],
					"source" : [ "obj-8", 0 ]
				}

			}
, 			{
				"patchline" : 				{
					"destination" : [ "obj-196", 0 ],
					"source" : [ "obj-9", 0 ]
				}

			}
 ],
		"dependency_cache" : [ 			{
				"name" : "btnEntrainement.png",
				"bootpath" : "~/Documents/Max 7/Projects/Manip Aliasing Spatial/Manip-Aliasing-Spatial/Manip/media",
				"patcherrelativepath" : "../media",
				"type" : "PNG",
				"implicit" : 1
			}
, 			{
				"name" : "btnTest.png",
				"bootpath" : "~/Documents/Max 7/Projects/Manip Aliasing Spatial/Manip-Aliasing-Spatial/Manip/media",
				"patcherrelativepath" : "../media",
				"type" : "PNG",
				"implicit" : 1
			}
, 			{
				"name" : "Interface.maxpat",
				"bootpath" : "~/Documents/Max 7/Projects/Manip Aliasing Spatial/Manip-Aliasing-Spatial/Manip/patchers",
				"patcherrelativepath" : ".",
				"type" : "JSON",
				"implicit" : 1
			}
, 			{
				"name" : "toggleXestA.png",
				"bootpath" : "~/Documents/Max 7/Projects/Manip Aliasing Spatial/Manip-Aliasing-Spatial/Manip/media",
				"patcherrelativepath" : "../media",
				"type" : "PNG",
				"implicit" : 1
			}
, 			{
				"name" : "toggleA.png",
				"bootpath" : "~/Documents/Max 7/Projects/Manip Aliasing Spatial/Manip-Aliasing-Spatial/Manip/media",
				"patcherrelativepath" : "../media",
				"type" : "PNG",
				"implicit" : 1
			}
, 			{
				"name" : "toggleB.png",
				"bootpath" : "~/Documents/Max 7/Projects/Manip Aliasing Spatial/Manip-Aliasing-Spatial/Manip/media",
				"patcherrelativepath" : "../media",
				"type" : "PNG",
				"implicit" : 1
			}
, 			{
				"name" : "toggleXestB.png",
				"bootpath" : "~/Documents/Max 7/Projects/Manip Aliasing Spatial/Manip-Aliasing-Spatial/Manip/media",
				"patcherrelativepath" : "../media",
				"type" : "PNG",
				"implicit" : 1
			}
, 			{
				"name" : "toggleX.png",
				"bootpath" : "~/Documents/Max 7/Projects/Manip Aliasing Spatial/Manip-Aliasing-Spatial/Manip/media",
				"patcherrelativepath" : "../media",
				"type" : "PNG",
				"implicit" : 1
			}
, 			{
				"name" : "btnOk.png",
				"bootpath" : "~/Documents/Max 7/Projects/Manip Aliasing Spatial/Manip-Aliasing-Spatial/Manip/media",
				"patcherrelativepath" : "../media",
				"type" : "PNG",
				"implicit" : 1
			}
, 			{
				"name" : "TogglePlay.png",
				"bootpath" : "~/Documents/Max 7/Projects/Manip Aliasing Spatial/Manip-Aliasing-Spatial/Manip/media",
				"patcherrelativepath" : "../media",
				"type" : "PNG",
				"implicit" : 1
			}
, 			{
				"name" : "BtnControl.maxpat",
				"bootpath" : "~/Documents/Max 7/Projects/Manip Aliasing Spatial/Manip-Aliasing-Spatial/Manip/patchers",
				"patcherrelativepath" : ".",
				"type" : "JSON",
				"implicit" : 1
			}
, 			{
				"name" : "TraitementFichiers.maxpat",
				"bootpath" : "~/Documents/Max 7/Projects/Manip Aliasing Spatial/Manip-Aliasing-Spatial/Manip/patchers",
				"patcherrelativepath" : ".",
				"type" : "JSON",
				"implicit" : 1
			}
, 			{
				"name" : "Train.txt",
				"bootpath" : "~/Documents/Max 7/Projects/Manip Aliasing Spatial/Manip-Aliasing-Spatial/Manip/data",
				"patcherrelativepath" : "../data",
				"type" : "TEXT",
				"implicit" : 1
			}
, 			{
				"name" : "AudioPlayer.maxpat",
				"bootpath" : "~/Documents/Max 7/Projects/Manip Aliasing Spatial/Manip-Aliasing-Spatial/Manip/patchers",
				"patcherrelativepath" : ".",
				"type" : "JSON",
				"implicit" : 1
			}
 ],
		"autosave" : 0,
		"styles" : [ 			{
				"name" : "AudioStatus_Menu",
				"default" : 				{
					"bgfillcolor" : 					{
						"type" : "color",
						"color" : [ 0.294118, 0.313726, 0.337255, 1 ],
						"color1" : [ 0.454902, 0.462745, 0.482353, 0.0 ],
						"color2" : [ 0.290196, 0.309804, 0.301961, 1.0 ],
						"angle" : 270.0,
						"proportion" : 0.39,
						"autogradient" : 0
					}

				}
,
				"parentstyle" : "",
				"multi" : 0
			}
, 			{
				"name" : "Default10",
				"default" : 				{
					"fontname" : [ "Arial" ],
					"fontsize" : [ 10.0 ]
				}
,
				"parentstyle" : "",
				"multi" : 0
			}
, 			{
				"name" : "jpatcher001",
				"parentstyle" : "",
				"multi" : 0
			}
, 			{
				"name" : "jpatcher002",
				"parentstyle" : "jpatcher001",
				"multi" : 0
			}
, 			{
				"name" : "newobjBlue-1",
				"default" : 				{
					"accentcolor" : [ 0.317647, 0.654902, 0.976471, 1.0 ]
				}
,
				"parentstyle" : "",
				"multi" : 0
			}
, 			{
				"name" : "newobjYellow-1",
				"default" : 				{
					"accentcolor" : [ 0.82517, 0.78181, 0.059545, 1.0 ],
					"fontsize" : [ 12.059008 ]
				}
,
				"parentstyle" : "",
				"multi" : 0
			}
, 			{
				"name" : "numberGold-1",
				"default" : 				{
					"accentcolor" : [ 0.764706, 0.592157, 0.101961, 1.0 ]
				}
,
				"parentstyle" : "",
				"multi" : 0
			}
, 			{
				"name" : "texteditGold",
				"default" : 				{
					"bgcolor" : [ 0.764706, 0.592157, 0.101961, 0.68 ],
					"textcolor_inverse" : [ 0.0, 0.0, 0.0, 1.0 ]
				}
,
				"parentstyle" : "",
				"multi" : 0
			}
 ],
		"clearcolor" : [ 1.0, 1.0, 1.0, 0.5 ],
		"bgcolor" : [ 0.172549019607843, 0.211764705882353, 0.223529411764706, 1.0 ]
	}

}
